<svg xmlns="http://www.w3.org/2000/svg" viewBox="0 0 76.88 76.4"><defs><style>.cls-1{fill:#e0e5e8;}.cls-2{fill:#a6acb0;}.cls-3{fill:#1288ca;}.cls-4{fill:#8bd2ef;}.cls-5{fill:#0088ce;}</style></defs><title>Round 10</title><g id="Layer_2" data-name="Layer 2"><g id="Round_11" data-name="Round 11"><rect class="cls-1" x="9.93" y="65.54" width="0.72" height="10.85"/><rect class="cls-1" x="65.39" y="65.54" width="0.72" height="10.85"/><rect class="cls-1" x="9.98" y="70.76" width="55.68" height="0.56"/><rect class="cls-1" x="66.02" y="63.94" width="10.85" height="0.71"/><rect class="cls-1" x="66.02" y="9.22" width="10.85" height="0.71"/><rect class="cls-1" x="71.25" y="9.66" width="0.56" height="54.94"/><path class="cls-2" d="M36.91,73.77h0c-.8,0-1.6,0-2.39-.07l0-.56c.78,0,1.57.07,2.36.07h0Zm2.41-.08,0-.55c.78-.06,1.58-.13,2.36-.24l.07.56C40.93,73.56,40.12,73.64,39.32,73.69Zm-7.22-.23c-.8-.1-1.6-.23-2.38-.38l.1-.55c.78.15,1.57.28,2.35.38Zm12-.39L44,72.52c.78-.15,1.56-.34,2.32-.54l.14.54C45.68,72.73,44.89,72.91,44.1,73.07Zm-16.74-.54c-.77-.2-1.55-.44-2.31-.7l.18-.53c.75.26,1.52.49,2.28.69Zm21.4-.71-.18-.53c.75-.25,1.5-.54,2.22-.84L51,71C50.28,71.27,49.52,71.56,48.76,71.82Zm-26-.84c-.74-.3-1.48-.64-2.2-1l.25-.5c.71.35,1.44.68,2.17,1Zm30.42-1-.25-.5c.71-.35,1.42-.73,2.1-1.12l.28.48C54.64,69.23,53.93,69.62,53.21,70ZM18.46,68.85c-.69-.4-1.38-.83-2.05-1.28l.31-.46c.66.44,1.34.86,2,1.25Zm38.92-1.29-.31-.47c.66-.44,1.31-.9,1.93-1.38l.34.44C58.71,66.64,58.05,67.11,57.38,67.56Zm-42.93-1.4c-.64-.48-1.27-1-1.87-1.53l.37-.42c.59.52,1.21,1,1.84,1.51Zm46.76-1.54-.37-.42c.59-.52,1.18-1.07,1.73-1.63l.4.4C62.4,63.54,61.81,64.09,61.21,64.62ZM10.82,63c-.57-.56-1.12-1.15-1.65-1.76l.42-.36c.52.59,1.07,1.17,1.62,1.73Zm53.8-1.77-.42-.37c.52-.59,1-1.21,1.51-1.84l.44.34C65.66,60,65.15,60.61,64.62,61.21Zm-57-1.85c-.49-.63-1-1.29-1.41-2l.46-.31c.44.66.91,1.31,1.39,1.93Zm59.92-2-.47-.31c.44-.65.87-1.33,1.26-2l.49.28C68.43,56,68,56.72,67.56,57.38ZM5,55.36q-.6-1.05-1.14-2.13l.5-.24c.35.7.73,1.41,1.12,2.09ZM70,53.2l-.5-.24c.35-.71.68-1.44,1-2.17L71,51C70.67,51.74,70.33,52.48,70,53.2ZM2.81,51c-.3-.74-.59-1.5-.85-2.25l.53-.18c.25.74.54,1.49.84,2.21Zm69-2.3-.53-.18c.25-.75.48-1.51.69-2.27l.54.14C72.32,47.2,72.08,48,71.83,48.74ZM1.26,46.48c-.21-.78-.39-1.57-.55-2.35L1.26,44c.15.77.33,1.55.54,2.31Zm71.81-2.4L72.52,44c.16-.77.29-1.56.39-2.34l.55.07C73.36,42.49,73.23,43.3,73.07,44.08ZM.32,41.75C.21,41,.13,40.14.08,39.34l.56,0c0,.79.13,1.58.23,2.36ZM73.69,39.3l-.55,0c0-.78.07-1.58.07-2.37v-.1h.56v.1C73.77,37.69,73.75,38.5,73.69,39.3ZM.56,36.93H0v0c0-.79,0-1.59.07-2.37l.56,0c-.05.77-.07,1.55-.07,2.33Zm72.57-2.51c0-.79-.13-1.58-.23-2.37l.55-.07c.1.79.18,1.6.24,2.4ZM.86,32.19l-.55-.07c.1-.79.23-1.6.38-2.38l.55.11C1.09,30.62,1,31.41.86,32.19Zm71.65-2.48c-.16-.77-.34-1.55-.55-2.31l.54-.15c.21.77.4,1.56.55,2.35ZM1.77,27.53l-.54-.14c.21-.78.44-1.55.7-2.31l.53.17C2.21,26,2,26.77,1.77,27.53Zm69.5-2.41c-.26-.74-.54-1.49-.84-2.21l.51-.22c.31.74.6,1.5.86,2.25ZM3.3,23l-.52-.22c.31-.74.64-1.48,1-2.2l.5.25C3.93,21.57,3.6,22.3,3.3,23Zm66.14-2.28c-.35-.71-.73-1.41-1.12-2.09l.48-.29q.6,1.05,1.14,2.13Zm-64-2-.49-.28c.4-.69.83-1.38,1.28-2.05l.46.31C6.21,17.4,5.79,18.08,5.4,18.76Zm61.66-2.12c-.44-.65-.91-1.3-1.39-1.93l.44-.34c.49.64,1,1.3,1.41,2ZM8,14.81l-.45-.34c.49-.64,1-1.27,1.53-1.87l.42.37C9,13.56,8.52,14.18,8,14.81Zm56.11-1.93c-.52-.59-1.07-1.17-1.62-1.73l.39-.4c.57.57,1.12,1.16,1.65,1.76Zm-53-1.65-.4-.39c.57-.57,1.16-1.13,1.76-1.66l.37.42C12.31,10.12,11.72,10.67,11.17,11.23Zm49.62-1.7C60.19,9,59.58,8.5,59,8l.34-.44c.63.49,1.26,1,1.87,1.53ZM14.73,8.09l-.34-.44c.64-.49,1.29-1,2-1.41l.31.46C16,7.14,15.36,7.61,14.73,8.09ZM57,6.64c-.65-.44-1.33-.86-2-1.25l.28-.49c.7.4,1.39.83,2,1.27ZM18.67,5.45,18.39,5q1-.6,2.13-1.14l.25.5C20.06,4.67,19.36,5.05,18.67,5.45ZM52.89,4.27c-.71-.35-1.44-.68-2.17-1l.22-.52c.74.31,1.48.64,2.2,1Zm-30-.93-.22-.52c.74-.31,1.5-.59,2.25-.85l.19.53C24.4,2.75,23.65,3,22.93,3.34ZM48.5,2.45C47.75,2.2,47,2,46.22,1.77l.14-.54c.78.2,1.55.44,2.31.69ZM27.42,1.8l-.15-.53c.78-.21,1.57-.4,2.35-.56l.11.55C29,1.42,28.18,1.6,27.42,1.8ZM43.9,1.24c-.77-.16-1.56-.28-2.34-.38L41.63.3c.79.1,1.6.23,2.38.39ZM32.08.87,32,.32Q33.2.17,34.4.08l0,.56C33.65.69,32.86.77,32.08.87ZM39.19.63c-.76-.05-1.54-.07-2.3-.07h-.07V0h.07c.77,0,1.56,0,2.34.07Z"/><path class="cls-3" d="M36.89,64.92a27.91,27.91,0,1,1,10.91-2.2A27.92,27.92,0,0,1,36.89,64.92Zm0-54.8A26.77,26.77,0,1,0,55.81,18,26.63,26.63,0,0,0,36.89,10.12Z"/><path class="cls-4" d="M36.89,61.44a24.55,24.55,0,1,1,17.36-7.19A24.44,24.44,0,0,1,36.89,61.44Zm0-48.79A24.24,24.24,0,1,0,54,19.75,24.07,24.07,0,0,0,36.89,12.65Z"/><path class="cls-4" d="M36.89,60.49a23.59,23.59,0,1,1,16.69-6.91A23.46,23.46,0,0,1,36.89,60.49Zm0-46.89a23.28,23.28,0,1,0,16.46,6.82A23.14,23.14,0,0,0,36.89,13.6Z"/><path class="cls-3" d="M21.87,43h1.69c1,0,1.78.33,1.78,1.44a1.35,1.35,0,0,1-.72,1.29l1,1.73H24.27L23.51,46h-.46V47.5H21.87Zm1.61,2c.47,0,.71-.2.71-.59S24,44,23.48,44h-.43v1.09Z"/><path class="cls-3" d="M28.06,45.25a2.08,2.08,0,1,1,4.14,0,2.08,2.08,0,1,1-4.14,0Zm2.94,0c0-.81-.33-1.27-.87-1.27s-.86.46-.86,1.27.33,1.32.86,1.32S31,46.06,31,45.25Z"/><path class="cls-3" d="M35,45.35V43h1.18v2.45c0,.79.2,1.08.67,1.08s.69-.29.69-1.08V43H38.7v2.31c0,1.52-.57,2.23-1.82,2.23S35,46.87,35,45.35Z"/><path class="cls-3" d="M41.72,43h1.21l1,2,.42,1h0a14.73,14.73,0,0,1-.15-1.7V43h1.12V47.5h-1.2l-1-2-.43-1h0c0,.51.15,1.15.15,1.7V47.5H41.72Z"/><path class="cls-3" d="M48.39,43H49.7a2.23,2.23,0,1,1,.07,4.46H48.39Zm1.25,3.52c.64,0,1.15-.27,1.15-1.31S50.28,44,49.64,44h-.07v2.57Z"/><path class="cls-3" d="M28.44,36.89h2.38V31.14h-2.1V29.28a7.9,7.9,0,0,0,2.91-1.09h2.21v8.7h2v2.42h-7.4Z"/><path class="cls-3" d="M37.35,33.7C37.35,29.89,39,28,41.48,28s4.14,1.93,4.14,5.72-1.68,5.82-4.14,5.82S37.35,37.5,37.35,33.7Zm5.43,0c0-3-.59-3.4-1.3-3.4s-1.29.45-1.29,3.4.59,3.5,1.29,3.5S42.78,36.64,42.78,33.7Z"/><path class="cls-3" d="M36.89,64.92a27.91,27.91,0,1,1,10.91-2.2A27.92,27.92,0,0,1,36.89,64.92Zm0-54.8A26.77,26.77,0,1,0,55.81,18,26.63,26.63,0,0,0,36.89,10.12Z"/><path class="cls-4" d="M36.89,61.44a24.55,24.55,0,1,1,17.36-7.19A24.44,24.44,0,0,1,36.89,61.44Zm0-48.79A24.24,24.24,0,1,0,54,19.75,24.07,24.07,0,0,0,36.89,12.65Z"/><path class="cls-4" d="M36.89,60.49a23.59,23.59,0,1,1,16.69-6.91A23.46,23.46,0,0,1,36.89,60.49Zm0-46.89a23.28,23.28,0,1,0,16.46,6.82A23.14,23.14,0,0,0,36.89,13.6Z"/><rect class="cls-1" x="10.42" y="17.13" width="11.5" height="0.56" transform="translate(-7.57 16.58) rotate(-45.11)"/><rect class="cls-1" x="5.2" y="11.88" width="11.5" height="0.56" transform="translate(-5.4 11.34) rotate(-45.11)"/><rect class="cls-1" x="13.36" y="11.03" width="0.56" height="7.44" transform="translate(-6.43 13.93) rotate(-44.89)"/><path class="cls-5" d="M46.42,30.41a14.83,14.83,0,0,1,1.12-2.86l.67-.07a18.3,18.3,0,0,0-.71,2.81Z"/></g></g></svg>