<svg xmlns="http://www.w3.org/2000/svg" viewBox="0 0 78.2 78.2"><defs><style>.cls-1{fill:#1288ca;}.cls-2{fill:#8bd2ef;}.cls-3{fill:#e0e5e8;}.cls-4{fill:#a6acb0;}.cls-5{fill:#0088ce;}</style></defs><title>Square 11</title><g id="Layer_2" data-name="Layer 2"><g id="Square_11" data-name="Square 11"><path class="cls-1" d="M55.82,62.47H20.91A5.5,5.5,0,0,1,15.42,57V22.06a5.49,5.49,0,0,1,5.49-5.49H55.82a5.5,5.5,0,0,1,5.5,5.49V57A5.51,5.51,0,0,1,55.82,62.47ZM20.91,17.83a4.23,4.23,0,0,0-4.22,4.23V57a4.23,4.23,0,0,0,4.22,4.23H55.82A4.24,4.24,0,0,0,60.05,57V22.06a4.24,4.24,0,0,0-4.23-4.23Z"/><path class="cls-2" d="M55.33,59.92H21.4A3.45,3.45,0,0,1,18,56.48V22.55a3.45,3.45,0,0,1,3.44-3.44H55.33a3.45,3.45,0,0,1,3.45,3.44V56.48A3.45,3.45,0,0,1,55.33,59.92ZM21.4,19.45a3.1,3.1,0,0,0-3.1,3.1V56.48a3.11,3.11,0,0,0,3.1,3.11H55.33a3.11,3.11,0,0,0,3.11-3.11V22.55a3.1,3.1,0,0,0-3.11-3.1Z"/><path class="cls-2" d="M55.11,59.13H21.63a2.88,2.88,0,0,1-2.87-2.88V22.78a2.88,2.88,0,0,1,2.87-2.87H55.11A2.88,2.88,0,0,1,58,22.78V56.25A2.88,2.88,0,0,1,55.11,59.13ZM21.63,20.24a2.54,2.54,0,0,0-2.53,2.54V56.25a2.54,2.54,0,0,0,2.53,2.54H55.11a2.54,2.54,0,0,0,2.53-2.54V22.78a2.54,2.54,0,0,0-2.53-2.54Z"/><path class="cls-1" d="M22.28,49.26l.7-.85a1.89,1.89,0,0,0,1.09.46c.38,0,.54-.13.54-.34s-.24-.29-.64-.45l-.58-.24a1.39,1.39,0,0,1-.94-1.3,1.59,1.59,0,0,1,1.74-1.46,2.22,2.22,0,0,1,1.55.63l-.62.78a1.48,1.48,0,0,0-.93-.34c-.3,0-.49.11-.49.31s.27.31.69.47l.57.22a1.29,1.29,0,0,1,.91,1.28,1.61,1.61,0,0,1-1.82,1.5A2.72,2.72,0,0,1,22.28,49.26Z"/><path class="cls-1" d="M29.29,49.86a2.19,2.19,0,0,1-1.61-2.38,2.18,2.18,0,1,1,4.34,0,2.23,2.23,0,0,1-1.43,2.33,1.17,1.17,0,0,0,1,.41,1.63,1.63,0,0,0,.53-.09l.22.89a2,2,0,0,1-.89.17A2.25,2.25,0,0,1,29.29,49.86Zm1.46-2.38c0-.84-.34-1.33-.9-1.33s-.91.49-.91,1.33.35,1.44.91,1.44S30.75,48.4,30.75,47.48Z"/><path class="cls-1" d="M34.08,47.59V45.17h1.24v2.56c0,.83.21,1.14.7,1.14s.72-.31.72-1.14V45.17h1.19v2.42c0,1.59-.6,2.34-1.91,2.34S34.08,49.18,34.08,47.59Z"/><path class="cls-1" d="M41,45.17h1.5l1.42,4.67H42.57l-.23-1H41l-.23,1H39.54Zm.3,2.72h.86L42,47.57c-.12-.44-.23-1-.35-1.48h0c-.1.47-.21,1-.33,1.48Z"/><path class="cls-1" d="M45.58,45.17h1.77c1,0,1.87.34,1.87,1.51A1.43,1.43,0,0,1,48.47,48l1,1.81H48.1l-.81-1.56h-.47v1.56H45.58Zm1.69,2.13c.48,0,.74-.22.74-.62s-.26-.53-.74-.53h-.45V47.3Z"/><path class="cls-1" d="M51.37,45.17h3v1H52.61v.74h1.52v1H52.61v.84h1.85v1H51.37Z"/><path class="cls-1" d="M29.86,39.42H32.3V33.53H30.14v-1.9a8,8,0,0,0,3-1.12h2.27v8.91h2V41.9H29.86Z"/><path class="cls-1" d="M39.55,39.42H42V33.53H39.84v-1.9a8,8,0,0,0,3-1.12h2.27v8.91h2V41.9H39.55Z"/><rect class="cls-3" x="15.47" y="63.7" width="0.59" height="11.51"/><rect class="cls-3" x="60.94" y="63.7" width="0.59" height="11.51"/><rect class="cls-3" x="15.51" y="69.24" width="45.65" height="0.59"/><rect class="cls-3" x="65.17" y="61.84" width="11.51" height="0.59"/><rect class="cls-3" x="65.17" y="16.37" width="11.51" height="0.59"/><rect class="cls-3" x="70.7" y="16.74" width="0.59" height="45.65"/><rect class="cls-3" x="10.64" y="17.74" width="12.19" height="0.59" transform="translate(-7.86 17.16) rotate(-45.11)"/><rect class="cls-3" x="5.1" y="12.18" width="12.19" height="0.59" transform="translate(-5.55 11.6) rotate(-45.11)"/><rect class="cls-3" x="13.75" y="11.28" width="0.59" height="7.88" transform="translate(-6.65 14.35) rotate(-44.89)"/><path class="cls-4" d="M39.12,78.2h0c-.84,0-1.7,0-2.53-.08l0-.59c.82,0,1.66.08,2.49.08h0Zm2.56-.09,0-.59c.84,0,1.68-.13,2.51-.24l.08.59C43.39,78,42.53,78.06,41.68,78.11ZM34,77.87c-.84-.11-1.69-.25-2.52-.41l.11-.58c.82.16,1.66.3,2.49.4Zm12.73-.42-.12-.58c.83-.16,1.65-.36,2.46-.57l.15.57C48.42,77.09,47.58,77.28,46.75,77.45ZM29,76.88c-.82-.22-1.65-.46-2.45-.74l.19-.56c.79.27,1.6.52,2.41.73Zm22.68-.75-.19-.56c.79-.27,1.58-.57,2.35-.89l.23.55C53.3,75.55,52.49,75.85,51.69,76.13Zm-27.53-.89c-.79-.32-1.57-.68-2.33-1l.26-.54c.75.38,1.52.73,2.3,1ZM56.4,74.17l-.26-.53c.75-.37,1.5-.77,2.22-1.19l.3.51C57.92,73.39,57.16,73.79,56.4,74.17ZM19.57,73c-.74-.43-1.47-.88-2.18-1.35l.33-.5c.7.47,1.42.92,2.14,1.34Zm41.26-1.37-.33-.49c.69-.47,1.38-1,2-1.47l.36.47C62.23,70.64,61.53,71.14,60.83,71.61ZM15.31,70.13c-.67-.51-1.33-1.06-2-1.62l.39-.44c.63.55,1.28,1.09,1.95,1.6ZM64.88,68.5l-.39-.45c.63-.55,1.25-1.13,1.84-1.72l.42.42C66.15,67.35,65.52,67.94,64.88,68.5ZM11.47,66.76c-.6-.6-1.19-1.22-1.75-1.86l.44-.39c.56.63,1.14,1.24,1.73,1.83Zm57-1.88-.44-.39c.55-.63,1.09-1.28,1.6-1.95l.47.36C69.6,63.58,69.06,64.24,68.49,64.88Zm-60.4-2c-.51-.67-1-1.37-1.49-2.07l.49-.33c.47.69,1,1.38,1.47,2Zm63.52-2.1-.49-.33c.47-.69.91-1.41,1.33-2.13l.52.29C72.54,59.39,72.08,60.12,71.61,60.82ZM5.25,58.68c-.43-.74-.83-1.49-1.21-2.25l.53-.27c.37.75.77,1.5,1.19,2.22Zm68.92-2.29-.53-.26c.38-.75.73-1.52,1-2.29l.54.22C74.91,54.85,74.55,55.63,74.17,56.39ZM3,54.1c-.32-.78-.63-1.58-.9-2.39l.56-.19c.27.79.57,1.58.89,2.35Zm73.16-2.44-.57-.19c.27-.79.52-1.6.73-2.41l.58.16C76.66,50,76.41,50.86,76.14,51.66ZM1.33,49.26c-.22-.81-.41-1.65-.58-2.49l.58-.11c.17.82.36,1.64.58,2.45Zm76.12-2.54-.58-.11c.17-.82.3-1.66.41-2.49l.59.08C77.76,45,77.62,45.89,77.45,46.72ZM.34,44.25c-.11-.84-.2-1.7-.25-2.54l.59,0c0,.83.13,1.68.24,2.5Zm77.78-2.59-.59,0c0-.84.08-1.68.08-2.52V39h.59v.1C78.2,40,78.17,40.81,78.12,41.66ZM.59,39.15H0v0c0-.83,0-1.68.08-2.51l.59,0c-.05.82-.08,1.65-.08,2.47Zm76.93-2.67c-.06-.83-.14-1.67-.25-2.5l.59-.08c.11.84.19,1.7.25,2.54ZM.91,34.12l-.59-.07c.11-.85.25-1.69.41-2.53l.58.12C1.15,32.46,1,33.29.91,34.12Zm76-2.63c-.17-.82-.36-1.64-.58-2.45l.57-.15c.22.82.42,1.65.59,2.49Zm-75-2.31L1.31,29c.22-.82.47-1.64.74-2.45l.56.19C2.34,27.56,2.1,28.37,1.88,29.18Zm73.66-2.55c-.27-.79-.57-1.58-.89-2.35l.55-.23c.32.78.63,1.59.9,2.39ZM3.49,24.41,3,24.18c.32-.78.68-1.57,1-2.33l.53.26C4.16,22.86,3.81,23.63,3.49,24.41ZM73.61,22q-.57-1.12-1.2-2.22l.52-.29c.42.73.83,1.49,1.21,2.25ZM5.72,19.89l-.51-.3c.42-.74.88-1.47,1.35-2.17l.49.32C6.59,18.44,6.14,19.16,5.72,19.89Zm65.36-2.25c-.47-.69-1-1.38-1.47-2l.46-.36c.52.67,1,1.37,1.5,2.07Zm-62.56-2-.47-.36c.52-.67,1.06-1.34,1.62-2l.45.39C9.56,14.37,9,15,8.52,15.69Zm59.48-2c-.55-.62-1.13-1.24-1.72-1.83l.41-.42c.61.6,1.2,1.23,1.76,1.86ZM11.84,11.9l-.42-.41c.6-.6,1.22-1.19,1.86-1.75l.39.44C13,10.73,12.43,11.31,11.84,11.9Zm52.6-1.8c-.63-.55-1.29-1.09-2-1.6L62.84,8c.68.52,1.35,1.07,2,1.62ZM15.62,8.58l-.36-.47c.67-.52,1.37-1,2.07-1.49l.33.49C17,7.57,16.28,8.07,15.62,8.58ZM60.43,7c-.69-.47-1.41-.91-2.14-1.33l.3-.51c.73.42,1.47.87,2.17,1.35ZM19.8,5.77l-.3-.51c.73-.43,1.49-.83,2.25-1.21l.26.53C21.26,5,20.52,5.35,19.8,5.77ZM56.07,4.52c-.76-.37-1.53-.72-2.3-1L54,2.94c.79.32,1.57.68,2.34,1.05Zm-31.77-1L24.07,3c.79-.33,1.59-.63,2.39-.9l.19.56C25.86,2.92,25.07,3.22,24.3,3.54ZM51.41,2.6c-.8-.27-1.61-.51-2.42-.73l.15-.57c.82.22,1.65.47,2.45.74ZM29.06,1.91l-.15-.57c.82-.22,1.66-.42,2.49-.58l.12.58C30.7,1.5,29.87,1.7,29.06,1.91Zm17.48-.6c-.82-.16-1.66-.3-2.49-.4l.08-.59c.84.11,1.69.25,2.52.41ZM34,.93,33.92.34c.84-.11,1.7-.2,2.55-.25l0,.59C35.67.73,34.83.82,34,.93ZM41.54.67C40.73.62,39.91.59,39.1.59H39V0h.08c.82,0,1.66,0,2.48.08Z"/><path class="cls-5" d="M47.45,32.38a14.83,14.83,0,0,1,1.12-2.86l.67-.07a18,18,0,0,0-.71,2.81Z"/></g></g></svg>