<svg xmlns="http://www.w3.org/2000/svg" viewBox="0 0 77.36 77.36"><defs><style>.cls-1{fill:#0088ce;}.cls-2{fill:#1288ca;}.cls-3{fill:#8bd2ef;}.cls-4{fill:#e0e5e8;}.cls-5{fill:#a6acb0;}</style></defs><title>Square 13</title><g id="Layer_2" data-name="Layer 2"><g id="Square_13" data-name="Square 13"><path class="cls-1" d="M49.41,32.21a14.5,14.5,0,0,1,1.11-2.85l.68-.08a17.22,17.22,0,0,0-.71,2.81Z"/><path class="cls-2" d="M55.22,61.79H20.69a5.44,5.44,0,0,1-5.44-5.43V21.82a5.44,5.44,0,0,1,5.44-5.43H55.22a5.44,5.44,0,0,1,5.44,5.43V56.36A5.44,5.44,0,0,1,55.22,61.79ZM20.69,17.64a4.18,4.18,0,0,0-4.18,4.18V56.36a4.18,4.18,0,0,0,4.18,4.18H55.22a4.18,4.18,0,0,0,4.18-4.18V21.82a4.18,4.18,0,0,0-4.18-4.18Z"/><path class="cls-3" d="M54.74,59.28H21.17a3.41,3.41,0,0,1-3.4-3.41V22.31a3.41,3.41,0,0,1,3.4-3.41H54.74a3.41,3.41,0,0,1,3.4,3.41V55.87A3.41,3.41,0,0,1,54.74,59.28Zm-33.57-40a3.07,3.07,0,0,0-3.07,3.07V55.87a3.07,3.07,0,0,0,3.07,3.07H54.74a3.07,3.07,0,0,0,3.07-3.07V22.31a3.07,3.07,0,0,0-3.07-3.07Z"/><path class="cls-3" d="M54.51,58.49H21.4a2.84,2.84,0,0,1-2.84-2.84V22.53a2.84,2.84,0,0,1,2.84-2.84H54.51a2.84,2.84,0,0,1,2.84,2.84V55.65A2.84,2.84,0,0,1,54.51,58.49ZM21.4,20a2.51,2.51,0,0,0-2.51,2.5V55.65a2.52,2.52,0,0,0,2.51,2.51H54.51A2.51,2.51,0,0,0,57,55.65V22.53A2.5,2.5,0,0,0,54.51,20Z"/><path class="cls-2" d="M22,48.73l.69-.84a1.91,1.91,0,0,0,1.08.45c.37,0,.53-.12.53-.33s-.23-.29-.62-.45l-.58-.24A1.36,1.36,0,0,1,22.21,46a1.56,1.56,0,0,1,1.72-1.43,2.21,2.21,0,0,1,1.53.62l-.61.76a1.51,1.51,0,0,0-.92-.33c-.3,0-.49.11-.49.31s.27.3.69.47l.56.22a1.25,1.25,0,0,1,.9,1.26,1.59,1.59,0,0,1-1.8,1.48A2.64,2.64,0,0,1,22,48.73Z"/><path class="cls-2" d="M29,49.33A2.18,2.18,0,0,1,27.38,47a2.16,2.16,0,1,1,4.29,0,2.21,2.21,0,0,1-1.41,2.31,1.17,1.17,0,0,0,1,.4,1.63,1.63,0,0,0,.53-.09l.21.88a1.92,1.92,0,0,1-.88.17A2.23,2.23,0,0,1,29,49.33ZM30.42,47c0-.84-.34-1.32-.89-1.32s-.9.48-.9,1.32.34,1.43.9,1.43S30.42,47.88,30.42,47Z"/><path class="cls-2" d="M33.71,47.07V44.68h1.23v2.54c0,.82.21,1.12.69,1.12s.72-.3.72-1.12V44.68h1.18v2.39c0,1.58-.6,2.32-1.9,2.32S33.71,48.65,33.71,47.07Z"/><path class="cls-2" d="M40.52,44.68H42l1.41,4.63h-1.3l-.22-1h-1.3l-.23,1H39.11Zm.29,2.7h.85l-.07-.32c-.12-.44-.23-1-.35-1.47h0c-.1.47-.22,1-.33,1.47Z"/><path class="cls-2" d="M45.09,44.68h1.75c1,0,1.85.34,1.85,1.5a1.41,1.41,0,0,1-.75,1.33l1,1.8H47.58l-.8-1.55h-.46v1.55H45.09Zm1.67,2.11c.48,0,.74-.21.74-.61s-.26-.53-.74-.53h-.44v1.14Z"/><path class="cls-2" d="M50.82,44.68h3v1H52v.72h1.51v1H52v.82h1.83v1h-3Z"/><path class="cls-2" d="M29.53,39H32V33.17H29.82V31.29a7.87,7.87,0,0,0,3-1.11H35V39h2v2.45h-7.5Z"/><path class="cls-2" d="M38.31,40.06l1.39-1.92A3.56,3.56,0,0,0,42,39.21c1,0,1.63-.36,1.63-1.07s-.44-1.35-2.81-1.35V34.66c1.89,0,2.46-.5,2.46-1.28s-.41-1-1.18-1a2.93,2.93,0,0,0-2,.93L38.6,31.43A5.51,5.51,0,0,1,42.26,30c2.48,0,4.08,1.14,4.08,3.18a2.6,2.6,0,0,1-1.81,2.44v.07a2.74,2.74,0,0,1,2.17,2.7c0,2.13-2,3.3-4.37,3.3A5,5,0,0,1,38.31,40.06Z"/><rect class="cls-4" x="15.3" y="63.01" width="0.59" height="11.38"/><rect class="cls-4" x="60.28" y="63.01" width="0.59" height="11.38"/><rect class="cls-4" x="15.35" y="68.49" width="45.16" height="0.59"/><rect class="cls-4" x="64.47" y="61.17" width="11.38" height="0.59"/><rect class="cls-4" x="64.47" y="16.19" width="11.38" height="0.59"/><rect class="cls-4" x="69.94" y="16.56" width="0.59" height="45.16"/><rect class="cls-4" x="10.52" y="17.55" width="12.06" height="0.59" transform="translate(-7.77 16.98) rotate(-45.11)"/><rect class="cls-4" x="5.04" y="12.05" width="12.06" height="0.59" transform="translate(-5.49 11.48) rotate(-45.11)"/><rect class="cls-4" x="13.6" y="11.16" width="0.59" height="7.8" transform="translate(-6.57 14.19) rotate(-44.89)"/><path class="cls-5" d="M38.7,77.36h0c-.84,0-1.68,0-2.51-.08l0-.59c.82,0,1.65.08,2.47.08h0Zm2.53-.09,0-.58c.83,0,1.67-.14,2.48-.24l.08.58C42.92,77.14,42.07,77.22,41.23,77.27ZM33.66,77c-.84-.1-1.68-.24-2.5-.4l.11-.58c.81.16,1.64.3,2.46.4Zm12.59-.41L46.13,76c.81-.16,1.63-.35,2.43-.56l.15.56C47.9,76.26,47.07,76.45,46.25,76.62Zm-17.56-.56c-.81-.22-1.62-.47-2.42-.74l.19-.55c.78.26,1.59.51,2.38.72Zm22.44-.75-.19-.56c.79-.26,1.57-.56,2.33-.87l.23.54C52.72,74.74,51.93,75,51.13,75.31ZM23.9,74.43c-.78-.32-1.55-.67-2.31-1l.26-.53c.74.37,1.51.72,2.27,1Zm31.9-1.06-.26-.52c.74-.37,1.48-.77,2.19-1.18l.3.51C57.3,72.6,56.55,73,55.8,73.37ZM19.36,72.19c-.73-.42-1.45-.87-2.15-1.34l.32-.48c.69.46,1.4.9,2.12,1.32Zm40.81-1.35-.32-.49c.68-.46,1.36-.95,2-1.45l.36.46C61.56,69.88,60.87,70.37,60.17,70.84Zm-45-1.46c-.67-.51-1.32-1-2-1.61l.39-.44c.62.55,1.27,1.08,1.93,1.59Zm49-1.62-.39-.44c.63-.55,1.24-1.12,1.82-1.71L66,66C65.43,66.62,64.81,67.2,64.18,67.76ZM11.35,66c-.6-.59-1.18-1.21-1.74-1.84l.44-.39c.55.62,1.12,1.24,1.71,1.82Zm56.41-1.86-.44-.38c.54-.63,1.08-1.27,1.58-1.93l.46.36C68.85,62.89,68.31,63.55,67.76,64.18ZM8,62.25c-.52-.67-1-1.36-1.48-2.06L7,59.87c.46.68,1,1.36,1.45,2Zm62.83-2.08-.49-.33c.47-.68.91-1.4,1.32-2.11l.51.29C71.76,58.75,71.31,59.47,70.84,60.17ZM5.19,58.05c-.42-.73-.82-1.48-1.19-2.23l.52-.26c.37.74.76,1.48,1.18,2.19Zm68.19-2.26-.53-.26c.37-.75.72-1.51,1-2.27l.54.22C74.1,54.26,73.75,55,73.38,55.79ZM3,53.52c-.32-.78-.62-1.57-.89-2.36L2.61,51c.27.78.56,1.56.88,2.32Zm72.37-2.41-.56-.19c.27-.78.51-1.59.72-2.38l.57.15C75.83,49.5,75.59,50.31,75.32,51.11Zm-74-2.38C1.1,47.92.91,47.1.74,46.27l.58-.11c.16.81.35,1.62.57,2.42Zm75.3-2.51-.57-.11c.16-.81.29-1.64.4-2.46l.58.07C76.92,44.56,76.78,45.4,76.62,46.22ZM.33,43.77C.22,42.94.14,42.1.08,41.26l.59,0c0,.82.14,1.66.24,2.48Zm77-2.56-.59,0c0-.82.08-1.66.08-2.49v-.1h.59v.1C77.36,39.52,77.33,40.37,77.28,41.21ZM.59,38.73H0v0c0-.83,0-1.66.08-2.48l.58,0c-.05.8-.07,1.63-.07,2.44Zm76.09-2.64c-.05-.83-.13-1.66-.24-2.48l.58-.08c.11.84.19,1.68.25,2.52ZM.9,33.76l-.58-.08c.11-.83.24-1.67.41-2.5l.57.12C1.14,32.11,1,32.93.9,33.76ZM76,31.15c-.16-.81-.36-1.62-.57-2.42l.56-.16c.22.82.42,1.64.58,2.47ZM1.86,28.87l-.57-.15c.22-.81.47-1.63.73-2.43l.56.19C2.31,27.27,2.07,28.07,1.86,28.87Zm72.87-2.53c-.27-.78-.56-1.56-.88-2.32l.54-.23c.32.78.62,1.57.89,2.36ZM3.46,24.15l-.55-.23q.5-1.17,1-2.31l.52.26C4.12,22.62,3.77,23.38,3.46,24.15Zm69.35-2.4c-.36-.74-.76-1.47-1.18-2.19l.51-.29c.42.72.83,1.47,1.2,2.22ZM5.66,19.67l-.51-.29c.42-.73.87-1.45,1.34-2.15l.48.32C6.52,18.24,6.07,19,5.66,19.67Zm64.65-2.22c-.46-.68-1-1.36-1.45-2l.46-.36c.51.67,1,1.36,1.48,2.05ZM8.43,15.53,8,15.17c.51-.67,1-1.33,1.61-2l.44.39C9.46,14.22,8.93,14.87,8.43,15.53Zm58.84-2c-.55-.62-1.12-1.23-1.71-1.82l.42-.41c.59.59,1.18,1.21,1.73,1.84ZM11.71,11.78l-.42-.42c.6-.59,1.22-1.17,1.85-1.73l.39.44C12.9,10.62,12.29,11.19,11.71,11.78Zm52-1.79c-.62-.54-1.27-1.07-1.93-1.58L62.17,8c.67.51,1.32,1,2,1.6ZM15.45,8.49,15.09,8c.67-.51,1.36-1,2.05-1.48l.33.49C16.78,7.49,16.1,8,15.45,8.49ZM59.78,7c-.69-.46-1.4-.9-2.12-1.31l.3-.51c.72.42,1.45.87,2.15,1.33ZM19.58,5.71l-.29-.51C20,4.78,20.76,4.38,21.52,4l.26.52C21,4.9,20.3,5.29,19.58,5.71ZM55.46,4.47c-.74-.36-1.51-.71-2.27-1l.22-.54c.78.32,1.56.67,2.31,1ZM24,3.5,23.82,3c.77-.32,1.56-.62,2.36-.9l.19.56C25.59,2.89,24.8,3.18,24,3.5Zm26.81-.93c-.78-.26-1.59-.5-2.38-.72l.15-.56c.81.21,1.62.46,2.42.73Zm-22.1-.68-.15-.56c.81-.22,1.64-.42,2.46-.58l.12.57Q30,1.58,28.75,1.89ZM46,1.3c-.81-.16-1.64-.3-2.46-.4l.07-.58c.84.1,1.68.24,2.5.4ZM33.63.92,33.56.34c.83-.11,1.68-.2,2.52-.25l0,.58C35.29.73,34.45.81,33.63.92ZM41.1.66C40.3.61,39.48.59,38.68.59h-.07V0h.08c.81,0,1.64,0,2.45.08Z"/></g></g></svg>